<svg xmlns="http://www.w3.org/2000/svg" width="82.679" height="104.395" viewBox="0 0 82.679 104.395"><defs><style>.a,.b,.c{fill:#fff;}.a{stroke:#fff;stroke-miterlimit:10;stroke-width:0.325px;}.b{fill-rule:evenodd;}</style></defs><g transform="translate(0.208)"><path class="a" d="M183.411,308.767c0,2.809-2.588,4.46-5.35,4.46a9.21,9.21,0,0,1-4.386-1.162l.317-.643a8.433,8.433,0,0,0,4.069,1.315c2.18,0,4.228-1.253,4.228-3.484,0-1.443-1.091-2.033-2.483-2.624-1.135-.477-2.414-1.063-3.584-1.627a3.7,3.7,0,0,1-2.34-3.676c-.039-2.061,1.331-4.332,5.132-4.332a20.7,20.7,0,0,1,3.418.4c.047.873.069,1.766.069,2.456,0,.29,0,.336-.157.336-.135,0-.2-.046-.382-1.116-.157-.871-1.309-1.584-3.106-1.584-1.731,0-3.958,1.161-3.958,3.281C174.9,304.642,183.411,303.415,183.411,308.767Zm8.443-1.514h-4.271l2.224-5.175Zm3.867,5.6-5.145-12.465a.242.242,0,0,0-.229-.158h-1.481l.245.513a.834.834,0,0,1,.044.826L184.212,313l1.079-.155,2.046-5.019H192.1l2.113,5.221Zm9.537-9.186c0,2.3-1.7,3.879-4.291,3.879-.561,0-1.3-.4-1.3-.625,0-.044.068-.176.135-.176a3.722,3.722,0,0,0,1.057.267,2.611,2.611,0,0,0,2.92-2.921c0-2.046-.9-3.2-3.888-3.2-.537,0-.628.108-.628.683v11.275l-1.483.177v-11.14c0-.887-.045-1.134-1.078-1.179-.4-.02-.427-.174-.427-.287a.2.2,0,0,1,.222-.219,5.263,5.263,0,0,1,.766.109,11.127,11.127,0,0,0,1.574.111c.764,0,1.956-.089,2.718-.089A3.562,3.562,0,0,1,205.257,303.663Zm5.472-3.169c0,.113-.183.291-.766.38-.447.068-.5.558-.5.979v11.016l-1.481.135V301.853c0-.444-.07-.911-.448-.979-.743-.135-.857-.267-.857-.38,0-.131.044-.2.265-.178.543.046,1.4.089,1.824.089s1.146-.043,1.688-.089C210.681,300.294,210.729,300.362,210.729,300.493Zm8.672,5.887.012.493h-3.954v4.571c0,.735.022.891.583.983a9.177,9.177,0,0,0,1.461.109,16.206,16.206,0,0,0,2.136-.109c.313-.067.627.043.766-.781.157-.848.312-.891.425-.891.135,0,.135.044.135.265,0,.467-.022,1.026-.047,1.605-.022.447-.11.469-.513.447-.588-.022-1.6-.069-2.409-.091-.693-.02-2.2-.042-2.784-.042l-1.236.085V301.877c0-.891-.07-1.139-1.1-1.182-.4-.021-.4-.158-.4-.267a.218.218,0,0,1,.225-.245,5.415,5.415,0,0,1,.765.111,9.468,9.468,0,0,0,1.48.111c.588,0,2.27-.021,2.97-.043.81-.023,1.283-.046,1.866-.068.4-.022.492-.022.514.423.026.58.048,1.16.048,1.629,0,.222,0,.268-.135.268-.113,0-.27-.046-.427-.892-.135-.825-.448-.736-.762-.8a4.348,4.348,0,0,0-.722-.046h-2.361c-.335,0-.47.091-.47.313v5.193H219.4Zm15.464-5.976c0,.112-.025.27-.43.291-1.034.044-1.079.291-1.079,1.182v10.971l-.873.177-8.051-10.97h-.022v10.769l-.7.2V301.877c0-.891-.044-1.139-1.078-1.182-.408-.021-.408-.178-.408-.291,0-.155.07-.245.2-.221.764.089,2.2.132,2.766.178.044.066.117.131.182.224l7.259,10.077v-8.786c0-.891-.044-1.139-1.079-1.182-.4-.021-.429-.178-.429-.291a.2.2,0,0,1,.225-.221c.316,0,1.348.178,1.73.178.36,0,1.26-.178,1.552-.178A.2.2,0,0,1,234.864,300.4Zm.58,12.254c-.114,0-.158-.043-.158-.132a.227.227,0,0,1,.066-.2l7.719-11.316H237.1a2.107,2.107,0,0,0-1.217.466.123.123,0,0,1-.091-.156l.182-.847c.023-.111.07-.2.157-.2a6.2,6.2,0,0,0,1.752.132h6.837l.112.4-7.475,10.96c1.352-.009,5.6.144,7.462.331l4.531-10.482a.83.83,0,0,0-.044-.825l-.247-.514h1.482a.234.234,0,0,1,.226.157l5.147,12.464-1.506.2-2.349-5.8-2.053-5.176-2.229,5.171-2.292,5.6C243.5,312.587,236.556,312.277,235.444,312.659ZM247.2,307.84v-.572h5.281v.572Z" transform="translate(-173.675 -229.205)"/><g transform="translate(21.98 89.251)"><path class="a" d="M219.28,322.978c.025.322-.005,13.452-.005,13.452s4.625-.058,5.59,0,1.961.147,2.255.147.409-.352.409-1.757v-1.115c0-.195-.574-.121-.574.335s-.139,1.533-.381,1.663a4.612,4.612,0,0,1-1.375.13c-.241-.009-3.011-.009-3.336-.037s-.614-.242-.632-.437,0-6.645,0-7.194.046-4.926.046-5.335.474-.436.818-.451.854.023.854-.34-.417-.344-.612-.344-1.627.179-2.213.171-1.942-.226-2.221-.217-.425.554-.084.632C218.179,322.366,219.227,322.294,219.28,322.978Z" transform="translate(-201.348 -321.65)"/><path class="a" d="M213.068,322.349c-1.1.055-1.1.257-1.1,1.242v12.7l-1.192.258-9.083-12.286v12l-1.062.313V323.591c0-.985,0-1.187-1.111-1.242-.54-.026-.591-.13-.591-.309,0-.234.1-.413.389-.387.872.1,2.145.153,2.834.207l8.728,11.951V323.591c0-.985,0-1.187-1.111-1.242-.514-.026-.619-.1-.619-.309a.354.354,0,0,1,.389-.387c.358,0,1.549.207,1.989.207.413,0,1.441-.207,1.783-.207a.352.352,0,0,1,.386.387c0,.206-.1.283-.626.309" transform="translate(-198.926 -321.65)"/><path class="a" d="M241.356,325.707c0,2.658-1.973,4.489-4.964,4.489-.651,0-1.511-.466-1.511-.723,0-.051.082-.2.159-.2a4.321,4.321,0,0,0,1.221.309c2.522,0,3.38-1.5,3.38-3.378,0-2.369-1.038-3.7-4.5-3.7-.624,0-.731.127-.731.792v13.045l-1.713.205V323.649c0-1.025-.055-1.31-1.251-1.363-.463-.023-.49-.2-.49-.331a.227.227,0,0,1,.255-.254,6.286,6.286,0,0,1,.886.124,12.719,12.719,0,0,0,1.822.13c.884,0,2.262-.1,3.148-.1,1.972,0,4.286,1.411,4.286,3.854" transform="translate(-203.075 -321.657)"/></g><g transform="translate(7.433)"><path class="b" d="M214.92,222.544c-1.2,1.367-1.406,4.961-1.544,6.575-1.208-1.078-2.961-2.633-4.6-2.683-.2-.01-.455.03-.218.287.8.861,2.673,2.861,3.554,3.822a1.891,1.891,0,0,0,1.307.643,1.855,1.855,0,0,0,.5-.02,1.065,1.065,0,0,0,.366-.129,2.282,2.282,0,0,0,.435-.346,1.922,1.922,0,0,0,.535-1.386v-6.546C215.266,222.4,215.049,222.4,214.92,222.544ZM199.1,252.562c-.158-.01-.326-.02-.475-.039a39.8,39.8,0,0,1-14.753-4.4c-.1-.059-.2.05-.149.168a8.49,8.49,0,0,0,2.387,2.09,33.5,33.5,0,0,0,10.189,4.109,34.205,34.205,0,0,0,4.694.595A2.344,2.344,0,0,0,199.1,252.562ZM207.5,276.2a27,27,0,0,1-2.693-15.249,3.242,3.242,0,0,0-.247-1.594,1.938,1.938,0,0,0-.734-1.05,3.477,3.477,0,0,0-1.92-.763,28.69,28.69,0,0,1-14.853-5.307c-.218-.158-.307-.059-.129.158a17.1,17.1,0,0,0,2.575,2.782,23.2,23.2,0,0,0,10.258,4.456c.773.139,1.565.238,2.347.307.178,0,.3,0,.327.05a.575.575,0,0,1-.01.346c-.069.763-.109,1.544-.109,2.327a22.056,22.056,0,0,0,2.664,10.654,16.669,16.669,0,0,0,2.337,2.98C207.5,276.505,207.612,276.436,207.5,276.2Zm1.763-11.179c.01-.158.02-.317.03-.465a2.329,2.329,0,0,0-2.139-2.278h-.05a28.533,28.533,0,0,0,2.159,15.17,8.148,8.148,0,0,0,1.683,2.664.115.115,0,0,0,.188-.119A37.364,37.364,0,0,1,209.266,265.018Zm4.98,1.2c0-.01.07-.584.07-.584a6.263,6.263,0,0,0-1.515-5.06c-1.912-2.188-5.11-2.356-6.377-3.753s-.772-4.9-2.713-6.911a6.92,6.92,0,0,0-4.852-2.14l-.534-.019a42.477,42.477,0,0,1-15.814-3.2c-.178-.069-.4.09-.247.3a7.781,7.781,0,0,0,3.277,2.317c5.585,2.366,13.18,2.92,13.2,2.92,3.228.158,4.644,3.011,5.386,5.5a5.487,5.487,0,0,0,3.04,3.664c2.367,1.148,5.218,2.94,4.8,6.079,0,.02-1.019,7.436.357,13.229A7.726,7.726,0,0,0,214,282.129a.2.2,0,0,0,.337-.188A39.674,39.674,0,0,1,214.246,266.217ZM200.78,242.224a27.568,27.568,0,0,1-4.9-14.674c-.02-.278-.138-.278-.208,0a16.545,16.545,0,0,0-.594,3.693,22.881,22.881,0,0,0,3.941,12.625,25.115,25.115,0,0,0-3.406,1.019.257.257,0,0,0,0,.466,9.993,9.993,0,0,0,4.822.426C201.74,245.264,201.453,243.136,200.78,242.224Zm2.159-5.258c-.079-.129-.168-.267-.248-.4a38.083,38.083,0,0,1-5.545-14.021.111.111,0,0,0-.218-.01,7.769,7.769,0,0,0-.178,3.119,32.121,32.121,0,0,0,2.98,10.358,33.548,33.548,0,0,0,2.4,3.97A2.322,2.322,0,0,0,202.939,236.967Zm3.6-3.168-.307-.416a40.94,40.94,0,0,1-7.129-14.1c-.06-.188-.317-.247-.386,0a7.908,7.908,0,0,0,.188,3.951c1.564,5.743,5.753,11.9,5.763,11.922,1.841,2.564.465,5.426-1.011,7.545-1.822,2.564.416,5.832.307,3.931-.149-2.812,3.386-4.465,3.872-7.792A6.724,6.724,0,0,0,206.543,233.8Zm1.99,19.407v-.168a2.449,2.449,0,0,1-1.912-1.159c-.465,2.188.723,3.209,2.476,3.525A7.353,7.353,0,0,1,208.533,253.205Zm-2.654-5.683c-.96,1.545.139,3.465,2.7,3.822.039-.683.05-1.515.079-2.168A4.246,4.246,0,0,1,205.879,247.522Zm8.031-3.891c-5.189,2.99-7.011.238-7.011.238s-1.971,2.268,1.3,3.148a6.974,6.974,0,0,0,6.337-1.594C215.563,244.67,215.782,242.571,213.91,243.631Zm1.3-3.457c-.911-1.257-2.466-.238-4.08.753a7.926,7.926,0,0,1-2.574,1.247s-.01,2.07,2.96.931C212.564,242.71,215.742,240.918,215.207,240.174Zm.6,13.259v-7.456c-.01-.01-.02-.03-.03-.039a7.953,7.953,0,0,1-5.763,3.03c-.03.851-.148,2.446-.227,3.327a6.015,6.015,0,0,0,1.475,4.515,6.263,6.263,0,0,0,2.019,1.575c.059.03.138.059.208.089l.366.158a6.557,6.557,0,0,1,.534.416,2.475,2.475,0,0,0,1.387.387h.03v-2.466a2.433,2.433,0,0,1-2.119-1.247,5.479,5.479,0,0,1,2.119-.208v-1.168c-.6,0-1.09-.258-1.09-.466S215.207,253.433,215.811,253.433Zm-2.892-1.792c-1.892,0-1.772-.466-1.822-.614a2.055,2.055,0,0,1,1.832-.971,1.745,1.745,0,0,1,1.683,1.168S214.316,251.641,212.92,251.641Z" transform="translate(-182.214 -219.118)"/><line class="c" y1="1.456" transform="translate(33.597 36.395)"/><circle class="c" cx="1.078" cy="1.078" r="1.078" transform="translate(41.811 39.873)"/><circle class="c" cx="1.078" cy="1.078" r="1.078" transform="translate(43.954 54.749)"/><circle class="c" cx="1.078" cy="1.078" r="1.078" transform="translate(40.091 58.64)"/><circle class="c" cx="1.078" cy="1.078" r="1.078" transform="translate(35.492 61.354)"/><circle class="c" cx="1.078" cy="1.078" r="1.078" transform="translate(46.114 25.022)"/><circle class="c" cx="1.078" cy="1.078" r="1.078" transform="translate(52.18 23.72)"/><circle class="c" cx="1.078" cy="1.078" r="1.078" transform="translate(53.721 8.38)"/><circle class="c" cx="1.078" cy="1.078" r="1.078" transform="translate(51.558 3.922)"/><circle class="c" cx="1.078" cy="1.078" r="1.078" transform="translate(48.31 0)"/><circle class="c" cx="1.078" cy="1.078" r="1.078" transform="translate(34.608 3.367)"/><circle class="c" cx="1.078" cy="1.078" r="1.078" transform="translate(38.124 6.812)"/><circle class="c" cx="0.838" cy="0.838" r="0.838" transform="translate(36.321 24.001)"/><circle class="c" cx="0.815" cy="0.815" r="0.815" transform="translate(38.049 35.344)"/><circle class="c" cx="0.829" cy="0.829" r="0.829" transform="translate(35.901 30.522)"/><path class="c" d="M236.42,247.39a.34.34,0,0,1-.138-.029.346.346,0,0,1-.178-.454l7.575-17.233a.345.345,0,1,1,.631.277l-7.575,17.233A.345.345,0,0,1,236.42,247.39Z" transform="translate(-189.191 -220.458)"/><path class="c" d="M236.289,249.6a.345.345,0,0,1-.083-.679l6.1-1.51a.345.345,0,0,1,.165.669l-6.1,1.51A.34.34,0,0,1,236.289,249.6Z" transform="translate(-189.174 -222.781)"/><path class="c" d="M234.371,242.84a.357.357,0,0,1-.13-.024.345.345,0,0,1-.19-.45l7.164-17.684a.342.342,0,0,1,.449-.19.346.346,0,0,1,.19.449l-7.164,17.685A.344.344,0,0,1,234.371,242.84Z" transform="translate(-188.926 -219.81)"/><path class="c" d="M235.712,246.043a.346.346,0,0,1-.312-.2l-3.874-8.291a.346.346,0,0,1-.012-.262l6.149-17.1a.344.344,0,1,1,.648.232l-6.1,16.971,3.815,8.161a.343.343,0,0,1-.313.49Z" transform="translate(-188.598 -219.227)"/><path class="c" d="M231.291,255.428h-6.932a.344.344,0,0,1,0-.689h6.932a.344.344,0,1,1,0,.689Z" transform="translate(-187.629 -223.732)"/><path class="c" d="M223.16,231.519a.351.351,0,0,1-.131-.026.342.342,0,0,1-.212-.318V224.37a.344.344,0,1,1,.689,0v5.973l2.927-2.927a.344.344,0,1,1,.487.487l-3.515,3.516A.342.342,0,0,1,223.16,231.519Z" transform="translate(-187.474 -219.753)"/><path class="c" d="M226.81,260.523a.344.344,0,0,1-.345-.345v-2.648a.344.344,0,0,1,.345-.345H231.1a.344.344,0,1,1,0,.689h-3.951v2.3A.344.344,0,0,1,226.81,260.523Z" transform="translate(-187.946 -224.049)"/><path class="c" d="M231.087,252.711h-8.3a.344.344,0,0,1-.345-.344V250.21a.344.344,0,1,1,.689,0v1.812h7.959a.344.344,0,1,1,0,.689Z" transform="translate(-187.425 -223.101)"/><path class="c" d="M231.052,250.572h-5.281a.344.344,0,1,1,0-.689h5.281a.344.344,0,1,1,0,.689Z" transform="translate(-187.812 -223.103)"/><path class="c" d="M221.964,262.458a.343.343,0,0,1-.345-.345l.01-5.213a.344.344,0,0,1,.345-.344h1.992a.344.344,0,0,1,.344.345v2.26a.344.344,0,1,1-.689,0v-1.915h-1.3l-.009,4.524.462-.053,5.564-2.564a1.348,1.348,0,0,0,.655-.712l1.931-4.842a1.359,1.359,0,0,0,.059-.821l-1.043-4.39a1.364,1.364,0,0,0-.622-.852l-6.7-4.224a.717.717,0,0,0-.617-.018.253.253,0,0,0-.13.256v3.095h2.517a.344.344,0,0,1,0,.689h-2.862a.344.344,0,0,1-.345-.344V243.55a.94.94,0,0,1,.48-.856,1.382,1.382,0,0,1,1.318.03l6.7,4.224a2.055,2.055,0,0,1,.933,1.28l1.043,4.39a2.044,2.044,0,0,1-.09,1.236L229.63,258.7a2.047,2.047,0,0,1-1,1.079l-5.951,2.672Z" transform="translate(-187.262 -222.152)"/><path class="c" d="M224.175,288.085a.344.344,0,0,1-.345-.344V268.76a.345.345,0,0,1,.2-.314l5.883-2.648a.345.345,0,1,1,.283.628l-5.679,2.557v18.758A.344.344,0,0,1,224.175,288.085Z" transform="translate(-187.605 -225.16)"/><path class="c" d="M233.418,281.332a.344.344,0,0,1-.341-.3l-1.984-14.876a.343.343,0,0,1,.3-.387.335.335,0,0,1,.386.3l1.984,14.876a.345.345,0,0,1-.3.387Z" transform="translate(-188.545 -225.16)"/><path class="c" d="M229.127,285.42a.343.343,0,0,1-.343-.317l-1.427-17.443a.345.345,0,0,1,.315-.372.331.331,0,0,1,.372.316l1.427,17.443a.344.344,0,0,1-.316.371A.157.157,0,0,1,229.127,285.42Z" transform="translate(-188.062 -225.357)"/><circle class="c" cx="1.078" cy="1.078" r="1.078" transform="translate(45.248 37.048)"/><circle class="c" cx="1.078" cy="1.078" r="1.078" transform="translate(60.22 38.127)"/><circle class="c" cx="1.078" cy="1.078" r="1.078" transform="translate(63.061 34.052)"/><circle class="c" cx="1.078" cy="1.078" r="1.078" transform="translate(65.218 29.499)"/><path class="c" d="M235.352,261.651a.344.344,0,0,1-.322-.466l2.275-6.036a.343.343,0,0,1,.3-.224l17.723-1.076a.351.351,0,0,1,.366.323.344.344,0,0,1-.323.366l-17.5,1.063-2.2,5.827A.343.343,0,0,1,235.352,261.651Z" transform="translate(-189.053 -223.617)"/><path class="c" d="M250.355,264.258h-.023l-14.972-1.046a.347.347,0,0,1-.32-.368.355.355,0,0,1,.368-.32l14.972,1.046a.345.345,0,0,1-.024.689Z" transform="translate(-189.057 -224.74)"/><path class="c" d="M253.362,259.7h-.007l-16.695-.315a.344.344,0,0,1,.006-.689h.007l16.7.314a.345.345,0,0,1-.007.689Z" transform="translate(-189.223 -224.245)"/></g></g></svg>